# xmcd
#
# Track frame offsets:
#	150
#	16592
#	31874
#	44330
#	65362
#	81011
#	98570
#	116684
#	129303
#
# Disc length: 1945 seconds
# Revision: 0
# Processed by: cddbd v1.5.2PL0 Copyright (c) Steve Scherf et al.
# Submitted via: dBpowerAMP V12.0
#
DISCID=60079709
DTITLE=Hank Williams, Jr. - Hank Williams, Jr. and Friends
DYEAR=1975
DGENRE=Country
TTITLE0=Losin' You
TTITLE1=On Susan's Floor
TTITLE2=I Really Did
TTITLE3=Can't You See
TTITLE4=Montana Song
TTITLE5=Clovis, New Mexico
TTITLE6=Brothers Of The Road
TTITLE7=Stoned At The Jukebox
TTITLE8=Living Proof
EXTD=
EXTT0=
EXTT1=
EXTT2=
EXTT3=
EXTT4=
EXTT5=
EXTT6=
EXTT7=
EXTT8=
PLAYORDER=
